<?xml version="1.0" encoding="UTF-8"?>
<svg width="29px" height="28px" viewBox="0 0 29 28" version="1.1" xmlns="http://www.w3.org/2000/svg" xmlns:xlink="http://www.w3.org/1999/xlink">
    <!-- Generator: Sketch 46 (44423) - http://www.bohemiancoding.com/sketch -->
    <title>Icon_picking</title>
    <desc>Created with Sketch.</desc>
    <defs></defs>
    <g id="Upload-catch-/-Catch-to-Fill-up" stroke="none" stroke-width="1" fill="none" fill-rule="evenodd">
        <g id="Artboard-User-profile---header" transform="translate(-300.000000, -593.000000)">
            <g id="Catch/" transform="translate(88.000000, 59.000000)">
                <g id="Catch-grid" transform="translate(10.000000, 57.000000)">
                    <g id="catch-2" transform="translate(0.000000, 265.000000)">
                        <g id="Form" transform="translate(4.988124, 212.000000)">
                            <g id="Icon_picking" transform="translate(197.529691, 0.000000)">
                                <ellipse id="Oval-3" fill="#4F719B" cx="13.9667458" cy="14" rx="13.9667458" ry="14"></ellipse>
                                <g id="Group" transform="translate(1.995249, 5.000000)" fill-rule="nonzero" fill="#FFFFFF">
                                    <ellipse id="Oval" cx="3.79043462" cy="6.75535135" rx="1" ry="1"></ellipse>
                                    <path d="M4.43641009,12.078 C4.75575785,12.078 5.09646017,12.1003784 5.44978109,12.1451351 C5.64245747,12.1699459 5.93025871,12.2161622 6.29425692,12.2745405 C7.31976119,12.4399459 8.87039353,12.6895135 9.87114592,12.6895135 C10.0283931,12.6895135 10.1671978,12.6831892 10.2841625,12.6705405 C10.66903,12.6296757 11.060692,12.5377297 11.4290582,12.4165946 C11.4407062,12.3771892 11.4562368,12.3387568 11.47565,12.3017838 C11.4630314,12.3027568 11.4504128,12.3042162 11.4377942,12.3051892 C11.2310432,12.3212432 11.000511,12.3295135 10.7525069,12.3295135 C10.3686101,12.3295135 10.066249,12.3100541 10.0070386,12.3056757 C9.55665147,12.3032432 9.1334429,12.1271351 8.81409514,11.808973 C8.71848495,11.7141081 8.63403736,11.6075676 8.56026706,11.4908108 C8.14191179,11.6041622 7.81285742,11.6703243 7.67356744,11.6961081 C7.6070771,11.7087568 7.54204276,11.7165405 7.47797907,11.7194595 C7.37508891,11.7248108 7.27316942,11.7282162 7.17124992,11.7311351 C7.17950055,11.7038919 7.18872183,11.6790811 7.19648713,11.6513514 C7.24793221,11.4922703 7.28044938,11.3205405 7.31927586,11.1468649 C7.34936637,10.9717297 7.3780009,10.7917297 7.39595814,10.6097838 C7.40663542,10.4268649 7.43041664,10.2449189 7.42604866,10.0624865 C7.42556333,9.88005405 7.4313873,9.70054054 7.41440072,9.52491892 C7.40081145,9.3492973 7.39644347,9.17756757 7.36877961,9.01362162 C7.3449984,8.84967568 7.32655582,8.69254054 7.30083328,8.54513514 C7.27074276,8.39918919 7.24210824,8.26102703 7.21590037,8.13356757 C7.16833793,7.88010811 7.09650896,7.6752973 7.06156513,7.5312973 C7.02225332,7.38778378 6.99944277,7.30605405 6.99944277,7.30605405 C6.99944277,7.30605405 6.99556012,7.39118919 6.98925082,7.54054054 C6.97808821,7.68940541 6.98294152,7.90005405 6.94993901,8.15156757 C6.93634975,8.27610811 6.92081916,8.41086486 6.90528857,8.55389189 C6.88490467,8.69545946 6.85481415,8.84335135 6.82860628,8.99513514 C6.80628106,9.14691892 6.75968929,9.30016216 6.72280413,9.45437838 C6.68883097,9.60956757 6.63253258,9.76135135 6.58448482,9.91167568 C6.53983437,10.0634595 6.46994672,10.2055135 6.41461899,10.3470811 C6.35298196,10.4857297 6.28406497,10.6170811 6.21903062,10.7406486 C6.14574565,10.8603243 6.08265263,10.9780541 6.00742633,11.0763243 C5.93850934,11.1804324 5.86473904,11.267027 5.79921936,11.3468108 C5.73030237,11.4222162 5.66915067,11.4927568 5.61091096,11.5428649 C5.55412724,11.5973514 5.50365282,11.6357838 5.46385568,11.6669189 C5.46288502,11.6674054 5.46239969,11.6678919 5.46142903,11.6683784 C4.87951724,11.6080541 4.33109328,11.5097838 3.83168774,11.3643243 C2.86733517,11.0831351 2.10293895,10.4088649 1.67633306,9.51227027 L3.34587148,9.56140541 L1.38270784,8.63124324 C1.36814791,8.55778378 1.35358798,8.48286486 1.3429107,8.40697297 C1.13761572,6.96989189 3.23084805,3.91281081 6.01713295,3.85297297 C6.44713616,3.85297297 6.89072864,3.90405405 7.33626244,4.00524324 C9.6731309,4.53502703 10.6636913,5.09789189 11.3873198,5.50897297 C11.9799088,5.84610811 12.4914476,6.13702703 13.3611607,6.22410811 C14.0381973,6.29172973 14.5740027,6.88816216 14.6084612,7.61254054 C14.6128292,7.69864865 14.6094319,7.7832973 14.5992399,7.866 C14.8957771,7.70545946 15.2020209,7.52254054 15.5140887,7.33572973 C16.5507556,6.71594595 17.6223663,6.07524324 18.6473852,6.07524324 L18.6512679,6.07524324 C18.9114053,6.07864865 19.1681453,6.10783784 19.4180908,6.15648649 C19.4564319,5.8212973 19.5098183,5.48708108 19.579706,5.1552973 L19.9941786,3.18940541 C18.1741876,3.59562162 16.934167,4.20956757 16.1644322,4.70335135 L16.1644322,4.70335135 C13.426195,5.04535135 9.93181229,1.42832432 8.86651088,0.240810811 C8.68257046,0.036 8.37632664,0.017027027 8.16909033,0.196540541 L5.46239969,2.55113514 C2.19612249,2.74281081 -0.204809655,6.63908108 0.0752262952,8.60108108 C0.317406433,10.2964865 1.32689478,11.6834595 2.77415163,12.3713514 C3.17115234,12.1923243 3.70986968,12.078 4.43641009,12.078 Z" id="Shape"></path>
                                    <path d="M3.70647236,14.8251892 C3.43371638,14.7775135 3.18280028,14.7595135 2.96828401,14.7512432 C2.92606022,14.8548649 2.89451371,14.9662703 2.87607113,15.0869189 C2.85617256,15.3364865 2.91441227,15.8429189 3.30267702,15.9304865 C3.43759902,15.9606486 3.98990563,15.8190811 4.68053155,15.8370811 C6.30833151,15.8594595 8.93251589,16.2321081 9.62362714,16.2904865 C9.56878475,16.2734595 9.53529691,16.2603243 9.51248636,16.2476757 C9.36640175,16.1824865 5.05035373,15.0601622 3.70647236,14.8251892 Z M3.30267702,15.9022703 C3.27307184,15.8954595 3.24929062,15.8823243 3.22356808,15.8711351 C3.36285806,15.7971892 3.52059061,15.7519459 3.69530975,15.7485405 C3.69530975,15.7485405 4.0098042,15.7115676 4.13016627,15.8254054 C3.70986968,15.858 3.39877255,15.9236757 3.30267702,15.9022703 Z" id="Shape"></path>
                                    <rect id="Rectangle-path" x="22.5013982" y="7.31286486" width="1" height="8.7227027"></rect>
                                    <path d="M13.094714,8.69059459 L10.7583309,8.69059459 C10.0434384,8.69059459 8.56803236,8.79081081 8.48989407,10.2930811 C8.5529871,11.4947027 9.30233806,12.0264324 10.0167452,12.0264324 C10.0167452,12.0264324 10.737947,12.0794595 11.4159543,12.0264324 C12.0939616,11.9734054 12.622487,11.7442703 12.622487,11.7442703 C12.622487,11.7442703 12.9127149,11.6124324 13.1937215,11.6211892 C13.2684625,11.6236216 13.2980677,11.7437838 13.2364306,11.7953514 C12.6584015,12.2789189 11.4397355,12.8257297 10.3132824,12.9463784 C9.07520318,13.0787027 6.24184118,12.5250811 5.41435193,12.4204865 C4.58783334,12.3158919 2.38394556,12.1514595 2.00975541,13.6099459 C1.96559029,13.8546486 1.97529691,14.3664324 2.35191372,14.5109189 C2.4834384,14.561027 3.0449663,14.5016757 3.72879759,14.6213514 C5.04695641,14.8519459 11.4853566,16.4933514 11.7420967,16.650973 C11.9988367,16.8085946 11.9983514,17.045027 12.4759171,17.3208649 C12.952512,17.5967027 13.7164229,17.7942162 14.8297721,17.3208649 C15.9431213,16.848 18.1693343,16.6120541 18.5512897,16.5721622 C18.9327598,16.5327568 22.1699172,15.6745946 22.1699172,15.6745946 L22.1699172,7.77502703 C22.1699172,7.77502703 20.4702882,6.37735135 18.6468999,6.35205405 C16.8443808,6.35254054 14.7259113,8.58940541 13.094714,8.69059459 Z M10.4074366,11.5769189 C10.3060024,11.7097297 9.94588688,11.6795676 9.94588688,11.6795676 C9.3625191,11.6907568 8.92280927,11.2816216 8.91310265,10.5567568 C8.90339603,9.83383784 9.33242858,9.40621622 9.91676703,9.39356757 C9.91676703,9.39356757 10.2778532,9.3492973 10.3758901,9.49475676 C10.4734416,9.63924324 10.5088708,11.4431351 10.4074366,11.5769189 Z M2.37278295,14.4428108 C2.32376452,14.4238378 2.28154073,14.3985405 2.24417025,14.3693514 C2.42471336,14.2078378 2.66058419,14.1212432 2.92945753,14.1285405 C2.92945753,14.1285405 3.29151441,14.1012973 3.38518328,14.2501622 C3.40362586,14.2798378 3.41672979,14.3761622 3.42692174,14.508 C2.89499904,14.4505946 2.48246774,14.4846486 2.37278295,14.4428108 Z" id="Shape"></path>
                                </g>
                            </g>
                        </g>
                    </g>
                </g>
            </g>
        </g>
    </g>
</svg>